<svg width="25" height="24" viewBox="0 0 25 24" fill="none" xmlns="http://www.w3.org/2000/svg">
<path d="M15.4053 11.4947C15.4053 10.2316 14.2684 9.09473 13.0053 9.09473C11.7421 9.09473 10.6053 10.2316 10.6053 11.4947C10.6053 12.7579 11.7421 13.8947 13.0053 13.8947C14.2684 13.8947 15.4053 12.8842 15.4053 11.4947Z" fill="black"/>
<path d="M15.4053 20.4635C15.4053 19.2003 14.2684 18.0635 13.0053 18.0635C11.7421 18.0635 10.6053 19.2003 10.6053 20.4635C10.6053 21.7266 11.7421 22.8635 13.0053 22.8635C14.2684 22.8635 15.4053 21.853 15.4053 20.4635Z" fill="black"/>
<path d="M15.4053 2.52646C15.4053 1.26331 14.2684 0.126465 13.0053 0.126465C11.7421 0.126465 10.6053 1.26331 10.6053 2.52646C10.6053 3.78962 11.7421 4.92647 13.0053 4.92647C14.2684 4.92647 15.4053 3.91594 15.4053 2.52646Z" fill="black"/>
</svg>
