<svg width="25" height="24" viewBox="0 0 25 24" fill="none" xmlns="http://www.w3.org/2000/svg">
<path fill-rule="evenodd" clip-rule="evenodd" d="M0.837891 12C0.837891 5.372 6.20989 0 12.8379 0C19.4659 0 24.8379 5.372 24.8379 12C24.8379 18.628 19.4659 24 12.8379 24C6.20989 24 0.837891 18.628 0.837891 12ZM23.3379 12C23.3379 6.21067 18.6272 1.5 12.8379 1.5C7.04856 1.5 2.33789 6.21067 2.33789 12C2.33789 14.6067 3.29922 16.9893 4.87789 18.828C6.81789 16.4307 9.72456 15.0107 12.8379 15.0107C15.9499 15.0107 18.8579 16.4307 20.7979 18.828C22.3766 16.9893 23.3379 14.6067 23.3379 12ZM5.94189 19.8987C7.59789 17.7733 10.1259 16.5107 12.8379 16.5107C15.5499 16.5107 18.0779 17.7733 19.7339 19.8987C17.8872 21.5133 15.4779 22.5 12.8379 22.5C10.1979 22.5 7.78856 21.5133 5.94189 19.8987ZM12.8379 13.5C15.3232 13.5 17.3379 11.4853 17.3379 9C17.3379 6.51467 15.3232 4.5 12.8379 4.5C10.3526 4.5 8.33789 6.51467 8.33789 9C8.33789 11.4853 10.3526 13.5 12.8379 13.5ZM12.8379 6C14.4926 6 15.8379 7.34533 15.8379 9C15.8379 10.6547 14.4926 12 12.8379 12C11.1832 12 9.83789 10.6547 9.83789 9C9.83789 7.34533 11.1832 6 12.8379 6Z" fill="black"/>
</svg>
