<svg width="9" height="10" viewBox="0 0 9 10" fill="none" xmlns="http://www.w3.org/2000/svg">
<path fill-rule="evenodd" clip-rule="evenodd" d="M5.00001 5.62484C5.00001 5.85496 4.82781 6.0415 4.61539 6.0415C4.40298 6.0415 4.23078 5.85496 4.23078 5.62484V0.833171C4.23078 0.603052 4.40298 0.416504 4.61539 0.416504C4.82781 0.416504 5.00001 0.603052 5.00001 0.833171V5.62484ZM7.24506 1.63439C7.39211 1.59968 7.54433 1.66108 7.63463 1.7915C8.41774 2.64277 8.854 3.79803 8.84616 4.99984C8.84616 7.53114 6.95198 9.58317 4.61539 9.58317C2.27881 9.58317 0.384625 7.53114 0.384625 4.99984C0.376793 3.79803 0.813046 2.64277 1.59616 1.7915C1.74929 1.66709 1.96355 1.68359 2.0989 1.83021C2.23424 1.97683 2.24947 2.20895 2.13463 2.37484C0.809885 3.84959 0.82962 6.20534 2.17885 7.6538C3.52808 9.10226 5.70271 9.10226 7.05194 7.6538C8.40117 6.20534 8.4209 3.84959 7.09616 2.37484C6.97577 2.27702 6.9191 2.11211 6.95113 1.95281C6.98317 1.79351 7.09802 1.66909 7.24506 1.63439Z" fill="#002B66"/>
</svg>
