<svg width="21" height="22" viewBox="0 0 21 22" fill="none" xmlns="http://www.w3.org/2000/svg">
<path d="M0.330933 14.64H6.65641C6.8997 16.72 8.27833 17.72 10.5085 17.72C12.5359 17.72 13.7929 17 13.7929 15.64C13.7929 13.8 11.2383 13.56 8.48107 13.08C4.83175 12.48 0.939152 11.52 0.939152 6.64C0.939152 2.28 5.03449 0 9.98134 0C15.9419 0 19.1046 2.56 19.429 6.64H13.2657C13.0224 4.76 11.7655 4.2 9.90025 4.2C8.27833 4.2 6.9808 4.8 6.9808 6.08C6.9808 7.52 9.37312 7.72 12.0087 8.24C15.6986 8.84 20.0372 9.76 20.0372 15.08C20.0372 19.6 15.9824 21.96 10.4679 21.96C4.38573 22 0.533672 19.2 0.330933 14.64Z" fill="black"/>
</svg>
