<svg width="8" height="8" viewBox="0 0 8 8" fill="none" xmlns="http://www.w3.org/2000/svg">
<path d="M7.86554 7.23723L4.63047 4L7.86554 0.762765C8.04327 0.585399 8.04327 0.310455 7.86554 0.133025C7.6878 -0.0443417 7.41229 -0.0443417 7.23449 0.133025L3.99942 3.37026L0.76435 0.141894C0.586614 -0.0354726 0.3111 -0.0354726 0.133301 0.141894C-0.0444338 0.319261 -0.0444338 0.594204 0.133301 0.771635L3.36837 4L0.133301 7.23723C-0.0444338 7.4146 -0.0444338 7.68954 0.133301 7.86697C0.311037 8.04434 0.586551 8.04434 0.76435 7.86697L3.99942 4.62974L7.24338 7.86697C7.42111 8.04434 7.69663 8.04434 7.87443 7.86697C8.04331 7.68961 8.04331 7.40576 7.86556 7.23723H7.86554Z" fill="black"/>
</svg>
