<svg width="24" height="23" viewBox="0 0 24 23" fill="none" xmlns="http://www.w3.org/2000/svg">
<path fill-rule="evenodd" clip-rule="evenodd" d="M23.701 11.4946C23.701 5.17885 18.522 0.126221 12.3325 0.126221C6.01674 0.126221 0.964111 5.17885 0.964111 11.4946C0.964111 17.8104 6.01674 22.8631 12.3325 22.8631V21.4736C8.54306 21.4736 5.25885 19.3262 3.49043 16.1683L6.39569 15.6631L5.51148 9.97885L2.4799 10.4841C2.98516 5.43148 7.2799 1.51569 12.3325 1.51569C17.5115 1.51569 21.6799 5.43148 22.1852 10.4841L19.1536 9.97885L18.1431 15.6631L22.6904 16.421L23.701 11.4946ZM4.37464 11.621L4.8799 14.3999L3.11148 14.6525L2.60622 11.9999L4.37464 11.621ZM19.9115 14.5262L21.6799 14.7789L22.1852 11.9999L20.4167 11.7473L19.9115 14.5262Z" fill="black"/>
</svg>
