<svg width="22" height="22" viewBox="0 0 22 22" fill="none" xmlns="http://www.w3.org/2000/svg">
<path fill-rule="evenodd" clip-rule="evenodd" d="M8.69475 9.04004C4.35612 9.60004 0.66626 11 0.66626 15.56C0.66626 19.64 3.66681 21.88 7.84325 21.84C11.006 21.84 12.8712 20.72 14.0876 19H14.1282C14.2904 20.08 14.4931 20.88 14.8175 21.32H21.3052V21.04C20.7375 20.68 20.5753 19.72 20.5753 18.08V7.64004C20.5753 5.04004 19.6832 3.00004 17.8991 1.72004C16.3583 0.600039 14.2498 0.0400391 11.0871 0.0400391C4.7616 0.0400391 1.76105 3.32004 1.59886 7.16004H7.7216C7.92434 5.40004 8.97859 4.48004 11.1276 4.48004C13.155 4.48004 14.0065 5.40004 14.0065 6.72004C14.0065 8.16004 12.6279 8.56004 8.69475 9.04004ZM14.2093 11.48V13.96C14.2093 16.16 12.4657 17.68 9.99229 17.68C8.32982 17.68 7.11338 17 7.11338 15.36C7.11338 13.76 8.16763 13.12 10.7627 12.56C12.1008 12.24 13.3578 11.92 14.2093 11.48Z" fill="black"/>
</svg>
