<svg width="18" height="18" viewBox="0 0 18 18" fill="none" xmlns="http://www.w3.org/2000/svg">
<path fill-rule="evenodd" clip-rule="evenodd" d="M11.7115 10.9895L17.3958 16.6737L16.6568 17.4506L10.9726 11.7664C8.68365 13.7134 5.34878 13.8071 2.95413 11.9916C0.559482 10.1762 -0.250843 6.93989 1.00576 4.21021C2.26236 1.48053 5.2479 -0.00833333 8.18428 0.630342C11.1207 1.26902 13.2181 3.86344 13.2273 6.86846C13.2309 8.37917 12.6932 9.84119 11.7115 10.9895ZM1.91349 8.89791C2.73849 10.8921 4.68394 12.1927 6.84207 12.1927C8.25578 12.1952 9.61245 11.6354 10.613 10.6366C11.6135 9.63784 12.1758 8.28217 12.1758 6.86846C12.1796 4.71033 10.8825 2.76257 8.88976 1.93403C6.897 1.10549 4.60134 1.55948 3.07395 3.08415C1.54656 4.60883 1.0885 6.90368 1.91349 8.89791Z" fill="black"/>
</svg>
