<svg width="16" height="16" viewBox="0 0 16 16" fill="none" xmlns="http://www.w3.org/2000/svg">
<path fill-rule="evenodd" clip-rule="evenodd" d="M4.37886 11.0316C7.41044 14.0632 9.93675 15.2421 11.621 15.2421C12.2946 15.2421 12.8841 15.0737 13.3894 14.7369L14.9894 13.1369C15.4104 12.7158 15.4104 12.0421 14.9894 11.6211L12.3789 9.01054C11.9578 8.58949 11.2841 8.58949 10.8631 9.01054L9.85254 10.0211C8.84202 9.60002 7.9157 9.01054 7.15781 8.25265C6.39991 7.49475 5.81044 6.56844 5.38938 5.55791L6.48412 4.54739C6.90517 4.12633 6.90517 3.45265 6.48412 3.0316L3.8736 0.421071C3.70517 0.168439 3.36833 0.0842285 3.1157 0.0842285C2.77886 0.0842285 2.52623 0.168439 2.35781 0.421071L0.757806 2.02107C-0.589562 3.36844 0.0841221 6.65265 4.37886 11.0316ZM5.05254 10.3579C1.93675 7.24212 0.336754 3.8737 1.43149 2.69475L3.03149 1.09475H3.1157H3.19991L5.72623 3.70528C5.76833 3.74739 5.78939 3.76844 5.78939 3.78949C5.78939 3.81054 5.76833 3.8316 5.72623 3.8737L4.29465 5.30528L4.46307 5.55791C5.38939 8.00002 7.32623 10.0211 9.85254 10.9474L10.1052 11.1158L11.621 9.51581C11.6631 9.4737 11.6841 9.45265 11.7052 9.45265C11.7262 9.45265 11.7473 9.4737 11.7894 9.51581L14.3999 12.1263C14.442 12.1684 14.4631 12.1895 14.4631 12.2105C14.4631 12.2316 14.442 12.2526 14.3999 12.2948L12.7999 13.8948L12.7157 13.979C11.5368 15.0737 8.25254 13.5579 5.05254 10.3579Z" fill="black"/>
</svg>
