<svg width="19" height="21" viewBox="0 0 19 21" fill="none" xmlns="http://www.w3.org/2000/svg">
<path fill-rule="evenodd" clip-rule="evenodd" d="M18.2963 15.6828L17.9305 15.5853C16.0525 15.1218 15.8573 10.9268 15.8573 9.17073C15.8573 4.97567 13.272 3.31716 11.394 2.65863C11.4428 2.48782 11.4671 2.31718 11.4671 2.14635C11.4671 0.951206 10.4916 0 9.32077 0C8.1501 0 7.17442 0.975509 7.17442 2.14635C7.17442 2.31717 7.19874 2.4878 7.24757 2.65863C5.39398 3.3172 2.78422 4.97563 2.78422 9.17073C2.78422 10.9511 2.58908 15.1219 0.710994 15.5853L0.345215 15.6828L0.345385 18.7558H6.5892C6.88182 20.0242 8.02816 20.9508 9.3453 20.9508C10.6623 20.9508 11.8086 20.024 12.1014 18.7558H18.3452V15.6828H18.2963ZM9.29645 19.9753C8.58923 19.9753 7.95497 19.5607 7.63803 18.951H10.9308C10.638 19.5607 10.0039 19.9753 9.2965 19.9753H9.29645ZM1.27218 17.7803H17.2719V16.39C16.0767 15.8778 14.8329 14.1462 14.8329 9.14622C14.8329 5.39014 12.5403 3.95118 10.589 3.4146L9.97928 3.24379L10.2964 2.70721C10.3939 2.53641 10.4427 2.31695 10.4427 2.12181C10.4427 1.48771 9.90613 0.951136 9.27204 0.951136C8.63794 0.951136 8.10137 1.46324 8.10137 2.12181C8.10137 2.31693 8.1502 2.5364 8.24768 2.70721L8.5648 3.24379L7.95505 3.4146C6.02816 3.95118 3.71117 5.39027 3.71117 9.14622C3.71117 14.1462 2.46733 15.8777 1.27218 16.39V17.7803Z" fill="black"/>
</svg>
