<svg width="10" height="9" viewBox="0 0 10 9" fill="none" xmlns="http://www.w3.org/2000/svg">
<path fill-rule="evenodd" clip-rule="evenodd" d="M0.577637 4.49999C0.577637 2.1724 2.47074 0.279297 4.79833 0.279297C7.12591 0.279297 9.01902 2.1724 9.01902 4.49999C9.01902 6.82757 7.12591 8.72068 4.79833 8.72068C2.47074 8.72068 0.577637 6.82757 0.577637 4.49999ZM5.57419 5.71033L6.41212 6.6724H7.37419L5.35695 4.40688L7.34315 2.2655H6.38108L5.48108 3.28964C5.26865 3.52863 5.12438 3.72218 4.9705 3.92861C4.94454 3.96344 4.91831 3.99863 4.89143 4.03447H4.8604C4.70522 3.78619 4.51902 3.56895 4.27074 3.28964L3.40177 2.2655H2.43971L4.33281 4.43792L2.3466 6.6724H3.30867L4.08453 5.71033C4.42591 5.33792 4.61212 5.08965 4.79832 4.84137L4.79833 4.84137H4.82936C5.01557 5.08964 5.23281 5.33792 5.57419 5.71033Z" fill="#010101"/>
</svg>
