<svg width="12" height="13" viewBox="0 0 12 13" fill="none" xmlns="http://www.w3.org/2000/svg">
<path fill-rule="evenodd" clip-rule="evenodd" d="M7.97892 7.82634L11.7684 11.6158L11.2758 12.1337L7.48629 8.34424C5.96033 9.64226 3.73708 9.70472 2.14065 8.49442C0.544212 7.28412 0.00399535 5.1266 0.841731 3.30681C1.67947 1.48702 3.66982 0.494444 5.62741 0.920228C7.58499 1.34601 8.98326 3.07563 8.98945 5.07897C8.99185 6.08612 8.63335 7.06079 7.97892 7.82634ZM1.44689 6.43202C1.99689 7.7615 3.29386 8.62853 4.73262 8.62853C5.67509 8.63021 6.57953 8.25698 7.24656 7.59115C7.91358 6.92531 8.28841 6.02153 8.28841 5.07905C8.29096 3.6403 7.42624 2.34179 6.09774 1.78943C4.76924 1.23707 3.23879 1.53973 2.22053 2.55618C1.20228 3.57263 0.896898 5.10253 1.44689 6.43202Z" fill="black"/>
</svg>
