<svg width="9" height="9" viewBox="0 0 9 9" fill="none" xmlns="http://www.w3.org/2000/svg">
<path fill-rule="evenodd" clip-rule="evenodd" d="M0.344727 4.49999C0.344727 2.1724 2.23783 0.279297 4.56542 0.279297C6.893 0.279297 8.78611 2.1724 8.78611 4.49999C8.78611 6.82757 6.893 8.72068 4.56542 8.72068C2.23783 8.72068 0.344727 6.82757 0.344727 4.49999ZM5.34128 5.71033L6.17921 6.6724H7.14128L5.12404 4.40688L7.11024 2.2655H6.14817L5.24817 3.28964C5.03574 3.52863 4.89147 3.72218 4.73759 3.92861C4.71163 3.96344 4.6854 3.99863 4.65852 4.03447H4.62749C4.47231 3.78619 4.28611 3.56895 4.03783 3.28964L3.16886 2.2655H2.2068L4.0999 4.43792L2.11369 6.6724H3.07576L3.85162 5.71033C4.193 5.33792 4.37921 5.08965 4.56541 4.84137L4.56542 4.84137H4.59645C4.78266 5.08964 4.9999 5.33792 5.34128 5.71033Z" fill="#010101"/>
</svg>
