<svg width="8" height="11" viewBox="0 0 8 11" fill="none" xmlns="http://www.w3.org/2000/svg">
<path fill-rule="evenodd" clip-rule="evenodd" d="M0 4C0 1.79104 1.79104 0 4 0C6.20896 0 8 1.79104 8 4C8 4.35821 7.8209 5.13433 7.58209 5.67164C6.80597 7.28358 4 10.7463 4 10.7463C4 10.7463 0.895522 6.92537 0.298507 5.61194C0.119403 5.07463 0 4.53731 0 4ZM4 9.67164C4.83582 8.59701 6.44776 6.50746 6.98507 5.37313C7.22388 4.89552 7.34328 4.23881 7.34328 4C7.34328 2.14925 5.85075 0.656716 4 0.656716C2.14925 0.656716 0.656716 2.14925 0.656716 4C0.656716 4.41791 0.716418 4.89552 0.895522 5.31343C1.31343 6.14925 2.98507 8.35821 4 9.67164Z" fill="white"/>
</svg>
