<svg width="19" height="18" viewBox="0 0 19 18" fill="none" xmlns="http://www.w3.org/2000/svg">
<path fill-rule="evenodd" clip-rule="evenodd" d="M14.2684 0.505263L17.7105 3.94737C18.0579 4.29474 18.2474 4.73684 18.2474 5.21053V15.9789C18.2474 16.9579 17.4579 17.7474 16.4789 17.7474H2.26842C1.28947 17.7474 0.5 16.9579 0.5 15.9789V1.76842C0.5 0.789474 1.28947 0 2.26842 0H13.0053C13.4789 0 13.9211 0.157895 14.2684 0.505263ZM10.7316 4.51579V1.16842H4.44737V4.51579C4.44737 4.61053 4.54211 4.70526 4.63684 4.70526H10.5421C10.6368 4.70526 10.7316 4.61053 10.7316 4.51579ZM4.41579 16.5474V11.0211C4.41579 10.9263 4.51053 10.8316 4.60526 10.8316H14.0789C14.1737 10.8316 14.2684 10.9263 14.2684 11.0211V16.5474H4.41579ZM16.4474 16.5789C16.7947 16.5789 17.0474 16.2947 17.0474 15.9789H17.0158V5.17895C17.0474 5.02105 16.9842 4.89474 16.8579 4.76842L13.4158 1.32632C13.3211 1.23158 13.1632 1.16842 13.0053 1.16842H11.9316V4.48421C11.9316 5.24211 11.3 5.87368 10.5421 5.87368H4.63684C3.87895 5.87368 3.24737 5.24211 3.24737 4.48421V1.13684H2.26842C1.92105 1.13684 1.66842 1.42105 1.66842 1.73684V15.9474C1.66842 16.2947 1.95263 16.5474 2.26842 16.5474H3.21579V11.0211C3.21579 10.2632 3.84737 9.63158 4.60526 9.63158H14.0789C14.8368 9.63158 15.4684 10.2632 15.4684 11.0211V16.5789H16.4474Z" fill="#010101"/>
</svg>
