<svg width="18" height="18" viewBox="0 0 18 18" fill="none" xmlns="http://www.w3.org/2000/svg">
<path fill-rule="evenodd" clip-rule="evenodd" d="M11.9445 10.9895L17.6287 16.6737L16.8897 17.4506L11.2055 11.7664C8.91656 13.7134 5.58169 13.8071 3.18704 11.9916C0.792392 10.1762 -0.0179328 6.93989 1.23867 4.21021C2.49528 1.48053 5.48081 -0.00833333 8.41719 0.630342C11.3536 1.26902 13.451 3.86344 13.4602 6.86846C13.4639 8.37917 12.9261 9.84119 11.9445 10.9895ZM2.1464 8.89791C2.9714 10.8921 4.91685 12.1927 7.07498 12.1927C8.48869 12.1952 9.84536 11.6354 10.8459 10.6366C11.8464 9.63784 12.4087 8.28217 12.4087 6.86846C12.4125 4.71033 11.1154 2.76257 9.12267 1.93403C7.12991 1.10549 4.83425 1.55948 3.30686 3.08415C1.77947 4.60883 1.32141 6.90368 2.1464 8.89791Z" fill="black"/>
</svg>
